<?xml version="1.0" encoding="utf-8"?>
<!-- Uploaded to: SVG Repo, www.svgrepo.com, Generator: SVG Repo Mixer Tools -->
<svg width="800px" height="800px" viewBox="0 0 1024 1024" class="icon"  version="1.1" xmlns="http://www.w3.org/2000/svg"><path d="M840.5 802.4c22.4 0 40.6-18.6 40.6-41.6V231.4H231.6v571" fill="#EDEDED" /><path d="M855.2 802.4h-26.3c-23 0-41.6-18.6-41.6-41.6V320.7H142.9v440.1c0 23 18.6 41.6 41.6 41.6H843" fill="#EDEDED" /><path d="M216.6 476h239v159.4h-239zM529.2 698.1h187.1v52H529.2z" fill="#CCCCCC" /><path d="M878.3 213.6h-648c-10.1 0-18.4 8.2-18.4 18.4v73.4h-69.1c-10.1 0-18.4 8.2-18.4 16.7v437.5c0 34.8 26.9 60.5 59.9 60.5h652.4c33 0 59.9-25.7 59.9-58.8V232c0-10.1-8.2-18.4-18.3-18.4zM184.4 783.3c-12.8 0-23.2-9.1-23.2-23.7v-418l606.7 0.6v419.1c0 8.2 1.7 14.8 4.7 21.9H184.4z m675.5-22c0 12.8-10.4 21.9-23.1 21.9h-9c-12.8 0-23.2-9.1-23.2-21.9V323.8c0-10.2-8.2-18.4-18.4-18.4H248.7v-54.9H860v510.8zM712.8 397.2H216.4c-5.1 0-9.2 4.1-9.2 9.2s4.1 9.2 9.2 9.2h496.5c5.1 0 9.2-4.1 9.2-9.2-0.1-5.1-4.2-9.2-9.3-9.2z m-257.7 73.6H216.4c-5.1 0-9.2 4.1-9.2 9.2v165.8c0 5.1 4.1 9.2 9.2 9.2h238.7c5.1 0 9.2-4.1 9.2-9.2V480c-0.1-5.1-4.2-9.2-9.2-9.2z m-9.2 165.8H225.5V489.2h220.3v147.4z m266.8 54.7H528.6c-5.1 0-9.2 4.1-9.2 9.2v50.3c0 5.1 4.1 9.2 9.2 9.2h184.1c5.1 0 9.2-4.1 9.2-9.2v-50.3c0-5.1-4.1-9.2-9.2-9.2z m-9.1 50.3H537.8v-31.8h165.8v31.8zM529.1 627.3h103c5 0 9-4.1 9-9.2s-4-9.2-9-9.2h-103c-5 0-9 4.1-9 9.2s4 9.2 9 9.2zM713 498.5H529.1c-5 0-9 4.1-9 9.2s4 9.2 9 9.2H713c5 0 9-4.1 9-9.2s-4.1-9.2-9-9.2z m0 36.8H529.1c-5 0-9 4.1-9 9.2s4 9.2 9 9.2H713c5 0 9-4.1 9-9.2s-4.1-9.2-9-9.2z m0 36.8H529.1c-5 0-9 4.1-9 9.2s4 9.2 9 9.2H713c5 0 9-4.1 9-9.2s-4.1-9.2-9-9.2zM318.9 728.3H215.8c-5 0-9 4.1-9 9.2s4 9.2 9 9.2h103.1c5 0 9-4.1 9-9.2 0.1-5.1-4-9.2-9-9.2z m81-36.8H215.8c-5 0-9 4.1-9 9.2s4 9.2 9 9.2h184.1c5 0 9-4.1 9-9.2 0.1-5.1-4-9.2-9-9.2z" fill="#211F1E" /></svg>